<?xml version="1.0" encoding="UTF-8"?>
<svg id="Ebene_2" data-name="Ebene 2" xmlns="http://www.w3.org/2000/svg" viewBox="0 0 219 55.94">
  <defs>
    <style>
      .cls-1 {
        fill: #ffe9e9;
        stroke-width: 0px;
      }
    </style>
  </defs>
  <g id="Ebene_1-2" data-name="Ebene 1">
    <g>
      <ellipse class="cls-1" cx="25.12" cy="27.02" rx="15.64" ry="18.49"/>
      <circle class="cls-1" cx="7.11" cy="27.97" r="7.11"/>
      <circle class="cls-1" cx="9.01" cy="15.64" r="7.11"/>
      <circle class="cls-1" cx="9.01" cy="40.29" r="7.11"/>
      <circle class="cls-1" cx="19.44" cy="7.11" r="7.11"/>
      <circle class="cls-1" cx="19.44" cy="48.83" r="7.11"/>
      <circle class="cls-1" cx="43.14" cy="7.11" r="7.11"/>
      <circle class="cls-1" cx="162.59" cy="48.83" r="7.11"/>
      <circle class="cls-1" cx="43.14" cy="48.83" r="7.11"/>
      <circle class="cls-1" cx="162.59" cy="7.11" r="7.11"/>
      <circle class="cls-1" cx="29.86" cy="7.11" r="7.11"/>
      <circle class="cls-1" cx="175.86" cy="48.83" r="7.11"/>
      <circle class="cls-1" cx="188.19" cy="48.83" r="7.11"/>
      <circle class="cls-1" cx="29.86" cy="48.83" r="7.11"/>
      <circle class="cls-1" cx="175.86" cy="7.11" r="7.11"/>
      <circle class="cls-1" cx="188.19" cy="7.11" r="7.11"/>
      <circle class="cls-1" cx="55.46" cy="7.11" r="7.11"/>
      <circle class="cls-1" cx="150.27" cy="48.83" r="7.11"/>
      <circle class="cls-1" cx="55.46" cy="48.83" r="7.11"/>
      <circle class="cls-1" cx="150.27" cy="7.11" r="7.11"/>
      <circle class="cls-1" cx="66.84" cy="7.11" r="7.11"/>
      <circle class="cls-1" cx="138.89" cy="48.83" r="7.11"/>
      <circle class="cls-1" cx="66.84" cy="48.83" r="7.11"/>
      <circle class="cls-1" cx="138.89" cy="7.11" r="7.11"/>
      <circle class="cls-1" cx="79.16" cy="7.11" r="7.11"/>
      <circle class="cls-1" cx="126.57" cy="48.83" r="7.11"/>
      <circle class="cls-1" cx="79.16" cy="48.83" r="7.11"/>
      <circle class="cls-1" cx="126.56" cy="7.11" r="7.11"/>
      <circle class="cls-1" cx="91.49" cy="7.11" r="7.11"/>
      <circle class="cls-1" cx="114.24" cy="48.83" r="7.11"/>
      <circle class="cls-1" cx="91.49" cy="48.83" r="7.11"/>
      <circle class="cls-1" cx="114.24" cy="7.11" r="7.11"/>
      <circle class="cls-1" cx="102.86" cy="7.11" r="7.11"/>
      <circle class="cls-1" cx="102.86" cy="48.83" r="7.11"/>
      <rect class="cls-1" x="18.01" y="8.53" width="183.92" height="36.97"/>
      <circle class="cls-1" cx="7.11" cy="27.97" r="7.11"/>
      <circle class="cls-1" cx="9.01" cy="40.29" r="7.11"/>
      <circle class="cls-1" cx="9.01" cy="15.64" r="7.11"/>
      <circle class="cls-1" cx="19.44" cy="48.83" r="7.11"/>
      <circle class="cls-1" cx="19.44" cy="7.11" r="7.11"/>
      <ellipse class="cls-1" cx="195.77" cy="27.02" rx="15.64" ry="18.49"/>
      <circle class="cls-1" cx="211.89" cy="27.97" r="7.11"/>
      <circle class="cls-1" cx="209.99" cy="40.29" r="7.11"/>
      <circle class="cls-1" cx="209.99" cy="15.64" r="7.11"/>
      <circle class="cls-1" cx="199.57" cy="48.83" r="7.11"/>
      <circle class="cls-1" cx="199.56" cy="7.11" r="7.11"/>
    </g>
  </g>
</svg>