<?xml version="1.0" encoding="UTF-8"?>
<svg id="Livello_1" data-name="Livello 1" xmlns="http://www.w3.org/2000/svg" viewBox="0 0 1200 1200">
  <polygon points="1096.5 877.53 1062.97 439.43 1033.76 442.67 999.14 748.81 974.61 375.61 939.65 375.61 914.37 610.8 880.06 396.16 848.78 385.34 820.66 715.27 784.96 342.07 747.1 350.73 710.32 717.44 691.93 363.71 655.15 368.03 621.62 708.78 586.19 312.86 553.47 312.86 535.08 704.45 485.32 348.56 447.45 355.05 416.08 715.27 385.13 344.23 336.04 344.23 285.19 688.23 268.97 396.16 243.72 396.16 210.55 686.07 173.77 396.16 146.5 396.16 146.5 1017.84 956.61 884.26 1096.5 877.53" fill="#00ff12"/>
</svg>