<?xml version="1.0" encoding="UTF-8"?>
<svg id="Livello_2" data-name="Livello 2" xmlns="http://www.w3.org/2000/svg" viewBox="0 0 1736 1871">
  <g id="Livello_1-2" data-name="Livello 1">
    <polygon points="633 989 397 1806 695 1022 576 1830 781 1013 727 1851 878.6 989 903 1871 992.98 989 1107.36 1871 1083 1066 1283 1818 1148 960 1418 1839 1250.34 960 1638 1671 1250 834 1708 858 1226 772 1736 490 1209 740 1598 147 1160 719 1279 62 1107 703 1173 0 1038 723 1021.57 0 964 674 878.6 0 911 678 780.55 0 838 662 642 49 760 650 397 41.09 695 654 45 413 662 703 45 992.91 658 756 0 1568.91 638 866 176 1708 633 989" fill="#00ff12"/>
  </g>
</svg>