<?xml version="1.0" encoding="UTF-8"?>
<svg id="Livello_1" data-name="Livello 1" xmlns="http://www.w3.org/2000/svg" viewBox="0 0 12.46 13.46">
  <polygon points="5.79 3.55 6.65 1 6.64 3.69 8.28 1.56 7.4 4.1 9.64 2.62 7.98 4.73 10.58 4.06 8.33 5.52 11 5.73 8.4 6.37 10.86 7.44 8.19 7.21 10.17 9.02 7.71 7.93 9 10.28 7.04 8.46 7.49 11.1 6.22 8.74 5.79 11.38 5.36 8.74 4.1 11.1 4.55 8.46 2.58 10.28 3.87 7.93 1.42 9.02 3.4 7.21 .73 7.44 3.19 6.37 .58 5.73 3.26 5.52 1.01 4.06 3.6 4.73 1.95 2.62 4.19 4.1 3.31 1.56 4.94 3.69 4.93 1 5.79 3.55" fill="#00ff12"/>
  <g>
    <path d="M5.05,9.06l.89-.55,.19,.32h0c-.21,.13-.42,.25-.63,.38l.38,.62,.31-.19,.19,.31,.31-.19,.38,.63,.31-.19,.38,.62,.3-.19,.39,.63h0c-.1,.06-.2,.12-.31,.19l-.38-.62-.31,.19-.38-.63-.31,.19-.38-.62-.31,.19-.2-.32-.27,.16-.57-.93Z"/>
    <path d="M8.67,5.96l.62-.38,.19,.31,.32-.19,.19,.31,.31-.19,1.35,2.19-.3,.19,.58,.94-.31,.19,.57,.93-3.13,1.92c-.19-.31-.38-.62-.57-.93h0c.1-.06,.21-.13,.32-.19l.38,.62,2.49-1.53-.38-.62,.31-.19-.58-.94,.3-.19-1.34-2.18-.31,.19-.19-.3-.31,.19,.57,.93-.31,.19c-.06-.1-.12-.2-.18-.29-.19-.32-.39-.64-.58-.96h0Z"/>
    <path d="M6.13,8.82l.31-.19-1.73-2.82,.31-.19h0s.03,.03,.04,.05c.74,1.21,1.49,2.42,2.23,3.63,.01,.02,.02,.04,.03,.06l-.31,.19-.38-.62-.31,.19-.19-.31h0Z"/>
    <path d="M5.65,5.24l.31-.19,.77,1.25,.62-.38,.19,.31h0c-.2,.12-.41,.25-.62,.38l.77,1.25-.31,.19s-.02-.03-.03-.04c-.57-.92-1.14-1.85-1.7-2.77h0Z"/>
    <path d="M7.53,6.23l.94-.58c.07,.11,.13,.21,.19,.31h0c-.21,.13-.42,.25-.63,.39l.58,.94-.31,.19s-.05-.09-.08-.13c-.23-.37-.46-.75-.69-1.12h0Z"/>
    <path d="M5.02,5.63l-.19-.31,.63-.39,.19,.31h0c-.21,.13-.42,.26-.63,.39h0Z"/>
    <path d="M5.02,5.63c.21-.13,.42-.26,.63-.39,.57,.92,1.14,1.85,1.7,2.77,0,.01,.02,.02,.03,.04l.31-.19-.77-1.25,.62-.38c.23,.37,.46,.75,.69,1.12,.03,.04,.05,.08,.08,.13l.31-.19-.58-.94,.63-.39c.19,.32,.39,.64,.58,.96,.06,.1,.12,.19,.18,.29l.31-.19-.57-.93,.31-.19,.19,.3,.31-.19,1.34,2.18-.3,.19,.58,.94-.31,.19,.38,.62-2.49,1.53-.38-.62-.32,.2c-.13-.21-.25-.41-.39-.63l-.3,.19-.38-.62-.31,.19-.38-.63-.31,.19-.19-.31-.31,.19-.38-.62,.63-.39,.19,.31,.31-.19,.38,.62,.31-.19s-.02-.04-.03-.06c-.74-1.21-1.49-2.42-2.23-3.63-.01-.02-.03-.04-.04-.05Z" fill="#fff"/>
    <rect x="3.7" y="2.83" width="7.32" height="9.87" transform="translate(-2.98 5) rotate(-31.59)" fill="none"/>
  </g>
</svg>