<?xml version="1.0" encoding="UTF-8"?>
<svg id="Livello_1" data-name="Livello 1" xmlns="http://www.w3.org/2000/svg" viewBox="0 0 48 48">
  <polygon points="22 10.39 25.47 .14 25.42 10.96 32.03 2.4 28.47 12.61 37.5 6.66 30.82 15.17 41.3 12.46 32.21 18.34 43 19.19 32.5 21.8 42.43 26.1 31.65 25.16 39.64 32.45 29.75 28.06 34.94 37.56 27.01 30.19 28.84 40.86 23.73 31.32 22 42 20.27 31.32 15.16 40.86 16.99 30.19 9.06 37.56 14.25 28.06 4.36 32.45 12.35 25.16 1.57 26.1 11.5 21.8 1 19.19 11.79 18.34 2.7 12.46 13.18 15.17 6.5 6.66 15.53 12.61 11.97 2.4 18.58 10.96 18.53 .14 22 10.39" fill="#00ff12"/>
  <g>
    <path d="M17.62,33.93c1.22-.75,2.44-1.5,3.7-2.28l.81,1.31h0c-.87,.52-1.73,1.05-2.6,1.59,.53,.87,1.05,1.7,1.58,2.57,.44-.27,.86-.53,1.3-.8l.8,1.29c.44-.27,.85-.52,1.3-.8,.54,.87,1.06,1.72,1.6,2.6,.44-.27,.86-.53,1.29-.79,.54,.87,1.05,1.71,1.59,2.58,.44-.27,.85-.52,1.27-.78,.55,.89,1.07,1.75,1.6,2.61h0c-.42,.25-.85,.51-1.29,.78l-1.58-2.57c-.43,.27-.85,.52-1.29,.79-.54-.88-1.06-1.72-1.6-2.6-.44,.27-.86,.53-1.3,.8-.54-.88-1.06-1.72-1.59-2.59l-1.28,.79c-.26-.43-.52-.84-.81-1.32l-1.11,.68c-.79-1.29-1.58-2.58-2.38-3.86Z"/>
    <path d="M32.67,21.09l2.58-1.58c.27,.44,.52,.85,.79,1.28,.44-.27,.85-.53,1.31-.8,.27,.44,.53,.86,.8,1.3,.44-.27,.85-.52,1.28-.78,1.87,3.04,3.72,6.05,5.59,9.09-.41,.25-.82,.5-1.26,.78,.8,1.3,1.59,2.58,2.39,3.88-.44,.27-.85,.52-1.29,.79l2.38,3.88c-4.34,2.67-8.64,5.31-12.99,7.99-.8-1.3-1.59-2.59-2.39-3.88h0c.43-.25,.86-.52,1.32-.8,.54,.88,1.06,1.73,1.59,2.58,3.46-2.13,6.89-4.24,10.36-6.37-.53-.86-1.05-1.71-1.59-2.59,.45-.27,.86-.53,1.3-.8-.81-1.31-1.6-2.6-2.41-3.91l1.26-.78c-1.86-3.03-3.7-6.02-5.56-9.05-.43,.27-.84,.52-1.28,.79-.27-.44-.52-.85-.78-1.27l-1.29,.79c.8,1.3,1.58,2.57,2.37,3.85-.44,.27-.85,.52-1.28,.79-.26-.42-.5-.82-.75-1.22-.81-1.32-1.62-2.65-2.43-3.97h0Z"/>
    <path d="M22.13,32.96l1.27-.78c-2.4-3.91-4.79-7.78-7.19-11.7l1.29-.79h0c.05,.07,.11,.14,.16,.22,3.09,5.02,6.18,10.04,9.26,15.06,.05,.08,.09,.17,.14,.26-.43,.27-.84,.52-1.28,.79l-1.58-2.57-1.27,.78-.79-1.28h0Z"/>
    <path d="M20.11,18.09c.42-.26,.85-.52,1.29-.79,1.06,1.72,2.11,3.43,3.18,5.17,.87-.53,1.71-1.05,2.57-1.58l.8,1.3h0c-.85,.51-1.7,1.03-2.58,1.57,1.08,1.76,2.14,3.48,3.2,5.2-.44,.27-.85,.53-1.28,.79-.05-.06-.09-.11-.12-.16-2.36-3.84-4.71-7.67-7.07-11.51h0Z"/>
    <path d="M27.95,22.19c1.29-.79,2.58-1.59,3.92-2.41,.28,.45,.54,.88,.8,1.31h0c-.86,.52-1.73,1.05-2.62,1.6,.82,1.33,1.6,2.61,2.39,3.89l-1.29,.79c-.12-.19-.22-.36-.33-.53-.96-1.55-1.92-3.1-2.88-4.66h0Z"/>
    <path d="M17.5,19.69l-.79-1.29c.87-.53,1.72-1.06,2.61-1.6l.79,1.29h0c-.87,.53-1.74,1.06-2.62,1.6h0Z"/>
    <path d="M17.49,19.69c.87-.54,1.74-1.07,2.62-1.61,2.36,3.84,4.71,7.67,7.07,11.51,.03,.05,.07,.1,.12,.16,.42-.26,.83-.51,1.28-.79-1.06-1.72-2.12-3.44-3.2-5.2,.88-.54,1.73-1.06,2.58-1.58,.96,1.55,1.92,3.1,2.88,4.66,.11,.17,.21,.34,.33,.53l1.29-.79c-.79-1.29-1.58-2.57-2.39-3.89l2.62-1.61c.81,1.32,1.62,2.65,2.43,3.97,.24,.4,.49,.8,.75,1.22,.43-.26,.84-.52,1.28-.79-.79-1.28-1.57-2.55-2.37-3.85l1.29-.79c.25,.41,.51,.82,.78,1.27,.44-.27,.85-.52,1.28-.79,1.86,3.02,3.7,6.02,5.56,9.05l-1.26,.78c.81,1.31,1.6,2.6,2.41,3.91-.44,.27-.85,.53-1.3,.8,.54,.88,1.06,1.73,1.59,2.59-3.46,2.13-6.9,4.24-10.36,6.37-.52-.85-1.05-1.7-1.59-2.58l-1.32,.81c-.53-.86-1.06-1.72-1.6-2.61-.42,.26-.83,.51-1.27,.78-.53-.87-1.05-1.71-1.59-2.58-.44,.27-.85,.52-1.29,.79-.54-.88-1.06-1.72-1.6-2.6-.44,.27-.86,.53-1.3,.8l-.8-1.29c-.45,.27-.87,.53-1.3,.8-.53-.87-1.05-1.71-1.58-2.57,.87-.54,1.74-1.07,2.6-1.6l.79,1.28,1.27-.78,1.58,2.57c.44-.27,.85-.52,1.28-.79-.05-.09-.09-.18-.14-.26-3.09-5.02-6.17-10.04-9.26-15.06-.05-.08-.11-.15-.16-.22Z" fill="#fff"/>
    <rect x="12.01" y="8.08" width="30.39" height="40.99" transform="translate(-10.94 18.49) rotate(-31.59)" fill="none"/>
  </g>
</svg>